<svg width="197" height="142" viewBox="0 0 197 142" fill="none" xmlns="http://www.w3.org/2000/svg">
<path d="M180.719 81.7659L161.472 90.9085L178.506 78.1245C175.738 73.7873 172.628 69.6796 169.206 65.8408L85.7341 86.664L161.132 57.7969C157.687 54.7458 154.028 51.9466 150.184 49.4209L22.9925 69.983C9.48801 86.9321 2.12632 107.986 2.11592 129.688H193.573C193.565 112.857 189.131 96.3261 180.719 81.7659Z" fill="#F2F2F2" fill-opacity="0.7"/>
<path d="M139.774 43.4851C126.715 37.0927 112.374 33.7802 97.8444 33.8009C68.274 33.8009 41.8365 47.2584 24.2766 68.4029C54.3462 61.7903 106.7 50.3434 139.774 43.4851Z" fill="#F2F2F2" fill-opacity="0.7"/>
<path opacity="0.4" d="M158.604 52.7245C160.188 52.7245 161.472 51.4357 161.472 49.8459C161.472 48.2561 160.188 46.9673 158.604 46.9673C157.02 46.9673 155.735 48.2561 155.735 49.8459C155.735 51.4357 157.02 52.7245 158.604 52.7245Z" fill="#009A93"/>
<path opacity="0.4" d="M153.296 53.2398C154.407 53.2398 155.308 52.3357 155.308 51.2205C155.308 50.1052 154.407 49.2012 153.296 49.2012C152.185 49.2012 151.284 50.1052 151.284 51.2205C151.284 52.3357 152.185 53.2398 153.296 53.2398Z" fill="#009A93"/>
<path opacity="0.4" d="M22.8275 63.5027C26.1449 63.5027 28.8343 60.8036 28.8343 57.474C28.8343 54.1445 26.1449 51.4453 22.8275 51.4453C19.5101 51.4453 16.8208 54.1445 16.8208 57.474C16.8208 60.8036 19.5101 63.5027 22.8275 63.5027Z" fill="#009A93"/>
<path opacity="0.4" d="M11.7103 64.5822C14.0375 64.5822 15.924 62.6888 15.924 60.3531C15.924 58.0175 14.0375 56.124 11.7103 56.124C9.38319 56.124 7.49666 58.0175 7.49666 60.3531C7.49666 62.6888 9.38319 64.5822 11.7103 64.5822Z" fill="#009A93"/>
<path opacity="0.2" d="M196.073 129.495H0V129.88H196.073V129.495Z" fill="#2F2E41"/>
<path d="M173.86 129.495L158.589 106.729C158.589 106.729 181.715 114.832 179.091 129.495H173.86Z" fill="#3F3D56"/>
<path d="M174.459 129.495L189.729 106.729C189.729 106.729 166.603 114.832 169.228 129.495H174.459Z" fill="#009A93"/>
<path d="M39.9834 25.6156C39.9834 24.3621 38.2027 23.346 36.006 23.346C35.9625 23.346 35.9195 23.3471 35.8763 23.3479C35.2137 21.3091 32.0811 19.7651 28.3162 19.7651C25.1129 19.7651 22.3675 20.8829 21.2115 22.472C20.3573 22.2451 19.4771 22.132 18.5935 22.1356C15.2253 22.1356 12.4948 23.6936 12.4948 25.6156C12.4948 27.3615 14.748 28.8068 17.6856 29.057C19.8202 29.4487 23.1546 29.7008 26.902 29.7008C33.2641 29.7008 37.9194 28.4828 38.0361 27.5672C39.2019 27.1715 39.9834 26.4457 39.9834 25.6156Z" fill="#F2F2F2" fill-opacity="0.7"/>
<path d="M136.098 26.5804C136.098 25.327 134.317 24.3109 132.12 24.3109C132.077 24.3109 132.034 24.3119 131.991 24.3127C131.328 22.2739 128.196 20.73 124.431 20.73C121.227 20.73 118.482 21.8477 117.326 23.4368C116.472 23.21 115.592 23.0968 114.708 23.1004C111.34 23.1004 108.609 24.6585 108.609 26.5804C108.609 28.3263 110.862 29.7716 113.8 30.0218C115.935 30.4136 119.269 30.6657 123.016 30.6657C129.379 30.6657 134.034 29.4476 134.151 28.532C135.316 28.1363 136.098 27.4106 136.098 26.5804Z" fill="#F2F2F2" fill-opacity="0.7"/>
<path d="M189.73 10.269C189.73 8.06886 186.604 6.28532 182.748 6.28532C182.672 6.28532 182.597 6.28721 182.521 6.2886C181.358 2.71005 175.859 0 169.251 0C163.628 0 158.81 1.96188 156.78 4.7512C155.281 4.35297 153.736 4.15444 152.185 4.1607C146.273 4.1607 141.48 6.89547 141.48 10.269C141.48 13.3334 145.436 15.8703 150.592 16.3095C154.338 16.9971 160.191 17.4395 166.769 17.4395C177.936 17.4395 186.107 15.3015 186.312 13.6945C188.358 13 189.73 11.7261 189.73 10.269Z" fill="#F2F2F2" fill-opacity="0.7"/>
<path d="M10.1171 129.306L9.73266 129.298C9.88135 125.008 10.3374 120.734 11.0974 116.51C12.7599 107.465 15.5243 101.525 19.3139 98.854L19.5346 99.1698C10.6822 105.408 10.1216 129.068 10.1171 129.306Z" fill="#3F3D56"/>
<path d="M14.9229 129.213L14.5385 129.206C14.5467 128.778 14.787 118.707 18.7373 115.924L18.958 116.24C15.1671 118.911 14.9248 129.11 14.9229 129.213Z" fill="#3F3D56"/>
<path d="M21.7219 99.2043C22.7835 99.2043 23.6442 98.3405 23.6442 97.275C23.6442 96.2095 22.7835 95.3457 21.7219 95.3457C20.6603 95.3457 19.7996 96.2095 19.7996 97.275C19.7996 98.3405 20.6603 99.2043 21.7219 99.2043Z" fill="#009A93"/>
<path d="M20.7698 115.797C21.8315 115.797 22.6921 114.933 22.6921 113.868C22.6921 112.802 21.8315 111.938 20.7698 111.938C19.7082 111.938 18.8475 112.802 18.8475 113.868C18.8475 114.933 19.7082 115.797 20.7698 115.797Z" fill="#009A93"/>
<path d="M14.0269 100.361C14.3881 102.677 13.4465 104.749 13.4465 104.749C13.4465 104.749 11.9192 103.065 11.558 100.749C11.1967 98.4332 12.1383 96.3618 12.1383 96.3618C12.1383 96.3618 13.6656 98.0453 14.0269 100.361Z" fill="#3F3D56"/>
<path d="M20.3102 105.986C18.1009 106.747 15.9046 106.177 15.9046 106.177C15.9046 106.177 17.2901 104.374 19.4994 103.614C21.7087 102.853 23.905 103.423 23.905 103.423C23.905 103.423 22.5195 105.225 20.3102 105.986Z" fill="#3F3D56"/>
<path d="M20.3811 120.68C19.3812 120.995 18.3163 121.041 17.2931 120.814C17.9428 119.983 18.8178 119.359 19.8128 119.017C20.8077 118.674 21.8801 118.628 22.9008 118.883C22.2321 119.693 21.3632 120.313 20.3811 120.68Z" fill="#3F3D56"/>
<path d="M96.4988 141.649C123.995 141.649 146.286 138.842 146.286 135.379C146.286 131.916 123.995 129.109 96.4988 129.109C69.0021 129.109 46.7116 131.916 46.7116 135.379C46.7116 138.842 69.0021 141.649 96.4988 141.649Z" fill="#3F3D56"/>
<path d="M109.603 55.9319C105.627 49.1888 97.7606 48.8746 97.7606 48.8746C97.7606 48.8746 90.0951 47.8907 85.1778 58.1605C80.5944 67.7328 74.2688 76.975 84.1594 79.2158L85.9459 73.6349L87.0523 79.6313C88.4606 79.7329 89.8733 79.7572 91.2842 79.7039C101.876 79.3606 111.964 79.8043 111.639 75.9895C111.207 70.9183 113.429 62.4201 109.603 55.9319Z" fill="#2F2E41"/>
<path d="M83.5948 114.984C83.478 115.725 83.3085 116.458 83.0875 117.175C82.8387 117.877 82.4546 118.527 82.2271 119.236C81.5019 121.498 82.5072 124.019 84.1128 125.765C85.5052 127.272 87.3025 128.343 89.2879 128.849C90.7363 129.214 92.2424 129.267 93.7351 129.318C97.8686 129.459 102.108 129.584 106.025 128.251C107.262 127.82 108.458 127.275 109.596 126.623C109.955 126.451 110.271 126.201 110.522 125.891C110.821 125.464 110.859 124.911 110.856 124.389C110.848 122.63 110.492 120.881 110.577 119.124C110.623 118.151 110.805 117.179 110.716 116.209C110.592 115.107 110.132 114.07 109.399 113.241C108.666 112.412 107.695 111.83 106.62 111.576C105.509 111.336 104.357 111.467 103.226 111.576C100.289 111.859 97.3407 111.992 94.391 111.973C91.3771 111.953 88.3819 111.491 85.383 111.443C84.4961 111.429 84.5141 111.703 84.2317 112.565C83.9717 113.358 83.759 114.165 83.5948 114.984Z" fill="#2F2E41"/>
<path d="M92.148 71.558C92.0031 72.3192 91.8466 73.1081 91.3908 73.7336C90.8665 74.4533 90.0116 74.8645 89.4475 75.5532C88.5985 76.5899 88.5498 78.0486 88.5463 79.3906C88.543 80.6268 88.5681 81.9453 89.2549 82.9715C89.7007 83.6375 90.379 84.1044 91.0419 84.5528C93.6178 86.2951 96.4014 88.0686 99.5071 88.1261C100.794 88.1499 102.174 87.8164 103.02 86.8435C103.386 86.3866 103.673 85.8719 103.871 85.3204C104.665 83.3557 105.147 81.2779 105.298 79.1631C105.368 78.1681 105.362 77.1441 105.026 76.2052C104.649 75.1494 103.886 74.2807 103.382 73.2797C102.786 72.0894 102.568 70.7443 102.757 69.4258C102.782 69.333 102.774 69.2343 102.735 69.1465C102.694 69.0995 102.642 69.0628 102.584 69.0393C102.526 69.0157 102.463 69.0059 102.401 69.0107L96.2429 68.5657C95.6694 68.5371 95.0983 68.4715 94.5331 68.3694C94.2011 68.3017 93.3243 67.8285 93.0078 67.9543C92.4218 68.1872 92.2681 70.9269 92.148 71.558Z" fill="#FFB8B8"/>
<path opacity="0.1" d="M92.148 71.558C92.0031 72.3192 91.8466 73.1081 91.3908 73.7336C90.8665 74.4533 90.0116 74.8645 89.4475 75.5532C88.5985 76.5899 88.5498 78.0486 88.5463 79.3906C88.543 80.6268 88.5681 81.9453 89.2549 82.9715C89.7007 83.6375 90.379 84.1044 91.0419 84.5528C93.6178 86.2951 96.4014 88.0686 99.5071 88.1261C100.794 88.1499 102.174 87.8164 103.02 86.8435C103.386 86.3866 103.673 85.8719 103.871 85.3204C104.665 83.3557 105.147 81.2779 105.298 79.1631C105.368 78.1681 105.362 77.1441 105.026 76.2052C104.649 75.1494 103.886 74.2807 103.382 73.2797C102.786 72.0894 102.568 70.7443 102.757 69.4258C102.782 69.333 102.774 69.2343 102.735 69.1465C102.694 69.0995 102.642 69.0628 102.584 69.0393C102.526 69.0157 102.463 69.0059 102.401 69.0107L96.2429 68.5657C95.6694 68.5371 95.0983 68.4715 94.5331 68.3694C94.2011 68.3017 93.3243 67.8285 93.0078 67.9543C92.4218 68.1872 92.2681 70.9269 92.148 71.558Z" fill="black"/>
<path d="M98.0372 72.3871C103.027 72.3871 107.072 68.3273 107.072 63.3193C107.072 58.3113 103.027 54.2515 98.0372 54.2515C93.0474 54.2515 89.0024 58.3113 89.0024 63.3193C89.0024 68.3273 93.0474 72.3871 98.0372 72.3871Z" fill="#FFB8B8"/>
<path d="M93.4154 83.6286C93.8863 84.1226 94.3852 84.6117 95.0023 84.9013C95.6305 85.1618 96.3051 85.2908 96.9848 85.2801C98.6134 85.3261 100.379 85.0266 101.512 83.8514C102.972 82.3366 102.924 79.8934 104.069 78.1262C104.161 77.9659 104.287 77.8278 104.438 77.7213C104.63 77.6164 104.847 77.5663 105.065 77.5765C106.511 77.5629 107.77 78.504 108.907 79.4009C109.416 79.8027 109.938 80.2189 110.259 80.7834C110.484 81.2235 110.638 81.6965 110.715 82.1849C111.279 84.9483 111.462 87.7738 111.643 90.5887C111.743 92.1435 111.843 93.6997 111.836 95.2578C111.811 100.391 110.623 105.438 109.44 110.432C109.288 111.076 109.08 111.795 108.497 112.103C108.237 112.22 107.958 112.289 107.673 112.305C104.287 112.704 100.894 113.103 97.4858 113.156C96.1556 113.177 94.826 113.144 93.4969 113.059C93.2681 113.056 93.0413 113.016 92.8249 112.942C92.5313 112.8 92.279 112.585 92.0924 112.317C90.2486 109.985 90.1398 106.761 90.1515 103.784C90.1804 96.5061 90.4395 89.2335 90.9288 81.9668C90.9692 81.367 90.9781 80.6386 90.5475 80.1668C91.3228 81.4125 92.4012 82.5646 93.4154 83.6286Z" fill="#D0CDE1"/>
<path d="M91.5012 73.1585C91.1961 73.7129 88.9464 75.0896 88.512 75.549C86.0854 78.1162 81.6564 78.0199 79.4371 80.7696C78.6562 81.737 78.2506 82.9525 77.9522 84.161C77.5302 85.8702 77.3049 87.7342 78.0118 89.3458C78.692 90.8965 80.1239 91.9686 81.0961 93.3538C82.1635 94.8747 82.6434 96.7214 83.1034 98.5236C83.443 99.8543 83.7854 101.218 83.6531 102.585C83.5028 104.14 82.7533 105.563 82.3108 107.06C81.8682 108.558 81.7919 110.341 82.815 111.518C83.5667 112.382 84.7458 112.725 85.8727 112.918C87.3161 113.135 88.7717 113.262 90.2309 113.298C91.5191 113.355 92.9392 113.367 93.9295 112.538C94.711 111.884 95.0506 110.822 95.0946 109.802C95.1385 108.782 94.927 107.771 94.7945 106.758C94.6572 105.708 94.6044 104.65 94.5603 103.592C94.3621 98.846 94.3351 94.0971 94.4792 89.3451C94.5092 88.3563 94.5456 87.3554 94.3355 86.3888C94.0592 85.1176 93.3747 83.9816 92.8035 82.8136C91.6699 80.4954 91.1337 78.2433 91.309 75.6667C91.482 73.1234 92.587 71.1858 91.5012 73.1585Z" fill="#009A93"/>
<path d="M104.188 73.3518C104.653 73.8313 106.232 73.9893 106.824 74.2981C107.38 74.5559 107.96 74.7576 108.556 74.9001C110.713 75.5245 112.764 76.4695 114.642 77.7035C115.032 77.9326 115.377 78.2317 115.66 78.5858C115.991 79.0477 116.111 79.6239 116.223 80.1815C116.512 81.6207 116.803 83.0774 116.738 84.5443C116.669 86.1013 116.202 87.6094 115.738 89.0969L114.006 94.6551C112.713 98.804 111.412 102.994 111.048 107.325C110.847 109.726 110.936 112.142 111.314 114.522C111.352 114.761 111.384 115.035 111.227 115.219C111.113 115.332 110.963 115.401 110.803 115.414C109.967 115.546 109.158 115.118 108.4 114.739C106.085 113.583 103.614 112.771 101.066 112.33C102.062 110.886 102.83 109.296 103.344 107.617C103.636 106.551 103.865 105.469 104.032 104.376L104.838 99.698C105.166 97.9883 105.397 96.2613 105.529 94.5253C105.59 93.8738 105.552 93.2169 105.417 92.5767C105.231 91.9676 104.985 91.3789 104.681 90.8195C103.353 88.047 102.73 84.883 103.252 81.8518C103.481 80.5252 103.925 79.1968 103.74 77.8635C103.562 76.5815 103.747 75.5852 103.419 74.3165C102.074 69.1073 103.314 72.4498 104.188 73.3518Z" fill="#009A93"/>
<path d="M79.4141 85.1536C78.8087 86.4145 77.7965 87.4887 77.452 88.8451C77.3179 89.479 77.2605 90.1268 77.2809 90.7745C77.2728 91.7507 77.2675 92.7466 77.5661 93.6757C77.7584 94.2738 78.0712 94.8254 78.2965 95.4118C78.6107 96.231 78.7506 97.1071 78.7074 97.9839C78.6466 99.1985 78.2355 100.377 78.2033 101.593C78.1528 103.505 79.0339 105.302 79.8935 107.009C80.1099 106.471 80.4408 105.987 80.8629 105.591C81.2851 105.195 81.7884 104.897 82.3376 104.716C82.8868 104.536 83.4687 104.478 84.0425 104.547C84.6163 104.615 85.1682 104.809 85.6596 105.114C85.8863 104.904 85.9106 104.559 85.9194 104.249C85.983 102.031 86.0443 99.8133 86.1033 97.5951C86.1964 94.1647 86.285 90.6883 85.4988 87.3485C85.1438 85.8406 84.5914 84.3385 83.5788 83.1689C83.0456 82.5531 81.2355 80.9309 80.3602 81.6208C79.9666 81.9311 80.0586 82.7756 79.9962 83.2033C79.9021 83.8793 79.7058 84.5369 79.4141 85.1536Z" fill="#009A93"/>
<path d="M116.915 81.5196C117.201 82.4145 117.218 83.3708 117.224 84.3107C117.236 86.2281 117.21 88.1453 117.148 90.0622C117.116 91.0435 117.072 92.0384 116.776 92.974C116.58 93.5911 116.279 94.1698 116.077 94.7847C115.472 96.6278 115.802 98.6268 115.854 100.567C115.891 101.195 115.837 101.824 115.696 102.437C115.376 103.64 114.518 104.611 113.919 105.701C113.35 106.736 113.007 107.896 112.327 108.861C111.648 109.827 110.472 110.592 109.332 110.296C108.468 110.071 107.854 109.304 107.43 108.516C106.503 106.784 106.186 104.789 106.53 102.854C106.957 100.499 108.335 98.4105 108.832 96.07C109.514 92.8561 108.477 89.5396 108.508 86.2536C108.494 85.7385 108.563 85.2245 108.714 84.7319C108.974 83.9813 109.534 83.3819 110.051 82.78C110.698 82.0277 111.298 81.2369 111.849 80.4119C112.22 79.8576 112.722 78.4322 113.379 78.3137C114.844 78.0491 116.551 80.3831 116.915 81.5196Z" fill="#009A93"/>
<path d="M71.8095 113.555C70.9991 113.351 70.1641 113.262 69.3289 113.29C68.4514 113.339 67.5943 113.575 66.8146 113.982C66.0348 114.389 65.3503 114.957 64.8066 115.65C64.2629 116.343 63.8723 117.144 63.661 118.001C63.4497 118.857 63.4223 119.748 63.5809 120.616C63.7832 121.556 64.114 122.463 64.5638 123.312C65.2217 124.652 66.0107 125.989 67.2286 126.847C67.9411 127.35 68.7656 127.663 69.5804 127.971L75.9948 130.396C76.9384 130.753 77.8822 131.11 78.8352 131.44C83.6228 133.101 88.6143 134.097 93.6708 134.401C95.211 134.493 96.7746 134.518 98.2771 134.166C98.6337 134.083 99.0141 133.958 99.2205 133.655C99.3428 133.441 99.4148 133.202 99.4313 132.956L99.826 130.183C99.8816 129.792 99.935 129.381 99.7924 129.014C99.6116 128.548 99.1584 128.254 98.7262 128.005C94.5092 125.574 89.5853 124.233 86.0358 120.897C85.2002 120.111 84.5009 118.866 83.4857 118.333C82.3344 117.728 80.9785 117.383 79.7885 116.825C77.1869 115.606 74.6291 114.206 71.8095 113.555Z" fill="#2F2E41"/>
<path opacity="0.1" d="M78.2131 117.294C80.4803 118.007 90.0526 122.947 91.6933 124.671C91.4734 124.751 84.0116 120.554 83.7877 120.486C81.7525 119.873 79.706 119.256 77.7732 118.359C77.3844 118.179 75.2472 117.33 75.344 116.838C75.4532 116.282 77.8106 117.167 78.2131 117.294Z" fill="black"/>
<path d="M106.498 135.839C106.627 135.848 106.755 135.81 106.858 135.733C106.903 135.674 106.936 135.608 106.955 135.536C106.975 135.465 106.98 135.391 106.97 135.317C106.967 134.058 106.963 132.799 106.96 131.539C105.877 131.021 104.666 130.856 103.478 130.696L97.9321 129.952C98.0595 129.969 97.065 132.349 97.2175 132.667C97.4863 133.227 99.5402 133.724 100.12 133.988C102.135 134.907 104.229 135.918 106.498 135.839Z" fill="#FFB8B8"/>
<path d="M89.0994 131.526C88.0523 131.694 86.8837 131.841 86.2056 132.66C85.3457 133.697 85.7118 135.243 86.122 136.529C86.1829 136.788 86.3053 137.03 86.4787 137.233C86.7586 137.51 87.1876 137.55 87.5801 137.575C88.535 137.636 89.5511 137.683 90.3855 137.213C90.7634 136.963 91.1272 136.691 91.4753 136.4C92.0905 135.989 92.7668 135.679 93.4789 135.481C94.7881 135.068 96.1356 134.789 97.5009 134.649C98.0389 134.624 98.5715 134.53 99.0854 134.369C99.5888 134.178 100.055 133.801 100.201 133.281C100.394 132.595 99.9969 131.895 99.6155 131.293C99.1405 130.543 98.6372 129.753 97.929 129.201C96.8956 128.395 96.3845 129.013 95.3436 129.529C93.3736 130.505 91.2687 131.178 89.0994 131.526Z" fill="#FFB8B8"/>
<path d="M86.3632 132.472L79.7149 130.5C78.9063 130.26 78.0839 130.018 77.2408 130.019C76.3976 130.02 75.5155 130.297 74.9687 130.941C74.4531 131.549 74.3056 132.379 74.1771 133.166L73.9021 134.85C73.7624 135.706 73.6225 136.578 73.7482 137.436C73.874 138.294 74.3104 139.152 75.069 139.567C75.989 140.071 77.1165 139.825 78.1433 139.614C80.2173 139.189 82.3269 138.961 84.4436 138.936C85.2394 138.926 86.0741 138.936 86.7773 138.562C87.6131 138.118 88.1132 137.178 88.1992 136.232C88.33 134.793 87.8522 132.914 86.3632 132.472Z" fill="#2F2E41"/>
<path d="M109.112 130.754C109.974 130.602 110.734 130.11 111.56 129.82C112.723 129.412 113.982 129.412 115.214 129.416C115.666 129.418 116.148 129.428 116.524 129.68C117.066 130.042 117.205 130.768 117.298 131.415L117.854 135.322C117.959 136.057 118.063 136.811 117.9 137.535C117.736 138.259 117.245 138.957 116.529 139.144C115.66 139.371 114.807 138.813 113.986 138.447C111.935 137.532 109.55 137.766 107.411 137.082C107.014 136.955 106.589 136.761 106.427 136.376C106.353 136.159 106.327 135.928 106.35 135.701C106.387 134.445 106.123 132.73 106.499 131.53C106.838 130.45 108.15 130.754 109.112 130.754Z" fill="#2F2E41"/>
<path d="M123.181 111.982C124.51 111.648 125.887 111.553 127.248 111.703C128.335 111.824 129.456 112.127 130.25 112.883C131.216 113.802 131.526 115.224 131.552 116.56C131.595 119.22 130.715 121.814 129.064 123.896C128.661 124.423 128.182 124.886 127.642 125.27C127.06 125.636 126.439 125.936 125.791 126.165L111.427 131.852C107.648 133.348 103.855 134.848 99.9133 135.835C99.8055 135.887 99.6885 135.917 99.569 135.923C99.4494 135.929 99.3299 135.911 99.2174 135.87C99.1049 135.829 99.0017 135.766 98.9138 135.685C98.826 135.603 98.7553 135.505 98.7059 135.395C97.4473 133.591 96.3915 131.653 95.5575 129.615C95.5181 129.567 95.4908 129.509 95.478 129.448C95.4652 129.387 95.4673 129.324 95.4842 129.263C95.501 129.203 95.532 129.148 95.5747 129.102C95.6173 129.056 95.6703 129.022 95.7291 129.001L105.889 123.142C106.617 122.722 107.353 122.296 107.957 121.712C108.397 121.285 108.756 120.782 109.019 120.228C109.23 119.787 109.249 118.745 109.518 118.418C109.782 118.099 110.683 118.073 111.099 117.948C111.686 117.767 112.261 117.549 112.82 117.295C115.092 116.274 117.116 114.792 119.295 113.597C120.517 112.896 121.823 112.353 123.181 111.982Z" fill="#2F2E41"/>
<path opacity="0.1" d="M117.421 116.358C115.675 117.674 113.415 118.883 111.685 120.234C111.095 120.695 101.252 126.249 101.113 126.986C102.727 127.259 113.008 120.04 114.479 119.32C115.95 118.6 117.254 117.584 118.547 116.575C118.876 116.318 120.271 115.546 119.326 115.259C118.794 115.097 117.814 116.095 117.421 116.358Z" fill="black"/>
<path d="M107.845 55.282L100.074 51.1963L89.3413 52.8677L87.1207 62.7108L92.6482 62.4975L94.1923 58.8811V62.4378L96.7428 62.3393L98.2232 56.5822L99.1484 62.7108L108.215 62.525L107.845 55.282Z" fill="#2F2E41"/>
<path d="M106.11 75.4736H89.3865V95.7315H106.11V75.4736Z" fill="#3F3D56"/>
<path d="M81.4475 110.707C81.8315 111.283 82.2814 111.845 82.8982 112.156C83.2915 112.336 83.7206 112.424 84.1528 112.412C84.585 112.401 85.0089 112.29 85.392 112.089C86.1571 111.677 86.7834 111.047 87.1916 110.278C88.0363 108.781 88.2112 106.99 88.1058 105.272C88.0004 103.555 87.6351 101.865 87.4734 100.152C87.3559 98.907 87.3463 97.6546 87.3369 96.4041C87.3077 96.1411 87.3627 95.8757 87.4938 95.6461C87.6809 95.3897 88.0234 95.3191 88.327 95.2286C90.0316 94.7202 91.1631 93.1166 91.9743 91.5283C92.516 90.4678 92.987 89.3084 92.8826 88.1213C92.7781 86.9341 91.9279 85.7382 90.7466 85.617C89.7727 85.5172 88.8735 86.138 88.171 86.8223C86.3988 88.5593 85.2599 90.8438 84.9372 93.3087C84.783 94.5158 84.8272 95.7557 84.5 96.9275C83.8016 99.4296 81.6162 100.964 80.5272 103.215C79.3272 105.696 79.9895 108.512 81.4475 110.707Z" fill="#FFB8B8"/>
<path d="M113.606 101.148C113.357 101.729 112.995 102.253 112.542 102.691C112.088 103.128 111.551 103.47 110.964 103.696C110.233 103.991 109.428 104.04 108.667 103.838C108.29 103.733 107.942 103.542 107.65 103.28C107.358 103.018 107.13 102.692 106.984 102.327C106.868 101.96 106.804 101.578 106.795 101.193C106.686 99.5052 106.728 97.7665 107.338 96.1906C107.574 95.5828 107.892 95.0064 108.077 94.3815C108.26 93.6597 108.354 92.9182 108.356 92.1735L108.556 87.5697C108.59 87.2355 108.567 86.8981 108.488 86.5715C108.288 85.9054 107.668 85.4725 107.099 85.0752C105.724 84.1158 104.366 82.9963 103.7 81.4546C103.471 80.9904 103.389 80.4671 103.465 79.9549C103.653 79.0407 104.572 78.4488 105.48 78.2495C106.075 78.119 106.689 78.1107 107.287 78.225C107.885 78.3393 108.453 78.5738 108.958 78.9145C109.464 79.2552 109.895 79.695 110.226 80.2074C110.557 80.7198 110.781 81.2941 110.885 81.8959C110.975 82.4154 110.974 82.9461 111.027 83.4708C111.138 84.5837 111.49 85.6566 111.711 86.7531C112.253 89.4541 111.972 92.2461 112.508 94.9466C112.957 97.2045 114.648 98.6778 113.606 101.148Z" fill="#FFB8B8"/>
</svg>
