<svg width="286" height="190" viewBox="0 0 286 190" fill="none" xmlns="http://www.w3.org/2000/svg">
<path opacity="0.4" d="M59.216 82.7529C44.7531 82.8202 32.981 83.0357 32.981 83.0357C32.981 83.0357 46.974 64.341 59.1635 71.2672C71.3529 78.1935 85.3555 82.7922 85.3555 82.7922C85.3555 82.7922 73.6788 82.6857 59.216 82.7529Z" fill="#F2F2F2"/>
<path d="M221.384 88.3075C223.057 88.3075 224.413 86.9394 224.413 85.2519C224.413 83.5643 223.057 82.1963 221.384 82.1963C219.71 82.1963 218.354 83.5643 218.354 85.2519C218.354 86.9394 219.71 88.3075 221.384 88.3075Z" fill="#FF6584"/>
<path d="M221.858 106.786L199.205 133.022L199.904 133.637L222.557 107.4L221.858 106.786Z" fill="#3F3D56"/>
<path d="M222.208 112.013C224.902 112.013 227.086 109.81 227.086 107.093C227.086 104.376 224.902 102.173 222.208 102.173C219.514 102.173 217.33 104.376 217.33 107.093C217.33 109.81 219.514 112.013 222.208 112.013Z" fill="#3F3D56"/>
<path d="M208.246 123.263C208.246 123.263 217.563 111.402 205.646 103.265L208.246 123.263Z" fill="#3F3D56"/>
<path d="M56.21 144.091C72.9895 175.477 108.602 188.951 108.602 188.951C108.602 188.951 117.009 151.537 100.229 120.151C83.4499 88.7649 47.8376 75.2915 47.8376 75.2915C47.8376 75.2915 39.4304 112.705 56.21 144.091Z" fill="#3F3D56"/>
<path d="M67.7432 133.766C98.0372 152.148 109.704 188.661 109.704 188.661C109.704 188.661 72.2552 195.37 41.9612 176.988C11.6672 158.605 0 122.092 0 122.092C0 122.092 37.4491 115.383 67.7432 133.766Z" fill="#59E0C2"/>
<path d="M188.278 134.025C157.824 152.137 145.837 188.544 145.837 188.544C145.837 188.544 183.226 195.587 213.68 177.475C244.134 159.364 256.121 122.956 256.121 122.956C256.121 122.956 218.732 115.914 188.278 134.025Z" fill="#3F3D56"/>
<path d="M198.949 145.255C181.895 176.49 146.166 189.645 146.166 189.645C146.166 189.645 138.087 152.158 155.141 120.923C172.195 89.6874 207.924 76.5322 207.924 76.5322C207.924 76.5322 216.003 114.019 198.949 145.255Z" fill="#59E0C2"/>
<path d="M137.058 59.2844C135.298 57.6786 134.2 55.4643 133.982 53.0804C133.764 50.6966 134.443 48.3172 135.882 46.4141C135.692 46.5943 135.506 46.7814 135.327 46.9803C134.494 47.9103 133.85 48.9967 133.432 50.1777C133.015 51.3586 132.832 52.6109 132.895 53.863C133.021 56.3918 134.138 58.7665 136 60.4646C137.862 62.1627 140.317 63.0452 142.824 62.9179C144.066 62.8549 145.283 62.5459 146.406 62.0085C147.529 61.4711 148.536 60.7159 149.369 59.7859C149.548 59.587 149.714 59.3813 149.872 59.1719C148.139 60.8079 145.86 61.7274 143.487 61.7482C141.114 61.7691 138.819 60.8897 137.058 59.2844Z" fill="#2F2E41"/>
<path d="M128.485 66.0605C139.252 66.0605 147.979 57.2574 147.979 46.3984C147.979 35.5393 139.252 26.7363 128.485 26.7363C117.719 26.7363 108.991 35.5393 108.991 46.3984C108.991 57.2574 117.719 66.0605 128.485 66.0605Z" fill="#2F2E41"/>
<path d="M123.13 71.6621L123.708 70.1472L113.194 79.1202L100.485 86.3452C100.485 86.3452 94.0145 61.1742 93.5523 60.7081C93.0902 60.242 84.7714 42.5291 81.0742 50.9194C77.377 59.3097 88.2376 64.2041 88.2376 64.2041C88.2376 64.2041 88.5842 94.852 99.6759 94.619C110.768 94.3859 124.517 84.2476 124.748 83.3154C124.979 82.3831 123.13 71.6621 123.13 71.6621Z" fill="#FFB8B8"/>
<path d="M126.133 66.5345C132.514 66.5345 137.687 61.3171 137.687 54.8813C137.687 48.4454 132.514 43.228 126.133 43.228C119.752 43.228 114.58 48.4454 114.58 54.8813C114.58 61.3171 119.752 66.5345 126.133 66.5345Z" fill="#FFB8B8"/>
<path d="M128.445 63.2717C128.445 63.2717 131.449 67.2338 130.525 67.6999C129.601 68.166 124.286 68.3991 121.051 72.3612C117.816 76.3233 124.979 86.3451 124.979 86.3451L152.246 67.933L141.155 64.204C141.155 64.204 133.529 60.0088 133.76 55.5806L128.445 63.2717Z" fill="#FFB8B8"/>
<path d="M165.25 190H134.462C132.718 177.139 131.912 165.353 131.912 165.353C131.912 165.353 131.462 177.209 130.265 190H90.7114C96.3182 152.124 122.899 111.051 122.899 111.051C122.899 111.051 123.13 105.456 123.824 104.523C124.518 103.593 119.895 103.359 117.814 96.3679C116.545 92.0999 117.686 89.307 118.77 87.7814C119.143 87.2316 119.601 86.7462 120.127 86.344C120.127 86.344 120.589 81.4518 120.127 80.752C120.067 80.6606 120.524 80.3391 121.367 79.8505C122.071 79.4407 123.043 78.9143 124.205 78.3091C130.865 74.8259 143.757 68.6634 148.173 66.5641C149.142 66.1007 149.704 65.8359 149.704 65.8359L157.561 68.6319C163.799 70.7281 163.799 84.0145 163.799 84.0145L163.446 84.5567L154.017 98.9621L148.548 107.322C149.936 108.252 147.164 114.08 147.164 114.08C147.164 114.08 151.114 119.804 154.327 128.542C156.143 133.405 157.382 138.468 158.018 143.625C158.423 146.968 158.502 150.342 158.255 153.7C157.399 164.928 161.205 178.573 165.25 190Z" fill="#2F2E41"/>
<path d="M157.673 70.0062C157.416 69.861 157.132 69.774 156.839 69.7512C156.546 69.7283 156.252 69.7703 155.977 69.8741C155.701 69.9779 155.452 70.1411 155.246 70.3522C155.039 70.5633 154.881 70.8172 154.783 71.0963C154.087 73.026 153.382 77.0489 153.633 85.413C154.095 100.795 154.326 111.283 154.326 111.283V134.59C154.326 134.59 144.159 156.964 149.705 156.964C155.25 156.964 159.179 139.251 159.179 139.251C159.179 139.251 164.262 112.448 162.645 107.787C162.645 107.787 167.206 75.5855 157.673 70.0062Z" fill="#FFB8B8"/>
<path d="M124.778 51.3601C130.254 51.3601 134.694 48.307 134.694 44.5409C134.694 40.7747 130.254 37.7217 124.778 37.7217C119.301 37.7217 114.861 40.7747 114.861 44.5409C114.861 48.307 119.301 51.3601 124.778 51.3601Z" fill="#2F2E41"/>
<path d="M140.525 39.192C145.753 39.192 149.991 34.9177 149.991 29.645C149.991 24.3724 145.753 20.0981 140.525 20.0981C135.297 20.0981 131.06 24.3724 131.06 29.645C131.06 34.9177 135.297 39.192 140.525 39.192Z" fill="#2F2E41"/>
<path d="M147.285 36.4642C144.911 36.4639 142.625 35.5641 140.878 33.9431C139.131 32.3222 138.052 30.0985 137.855 27.7129C137.833 27.9755 137.819 28.2403 137.819 28.5085C137.819 31.0405 138.817 33.4688 140.592 35.2591C142.367 37.0495 144.774 38.0554 147.285 38.0554C149.795 38.0554 152.203 37.0495 153.978 35.2591C155.753 33.4688 156.75 31.0405 156.75 28.5085C156.75 28.2403 156.737 27.9755 156.715 27.7129C156.517 30.0985 155.438 32.3222 153.692 33.9431C151.945 35.5641 149.658 36.4639 147.285 36.4642Z" fill="#2F2E41"/>
<path d="M137.424 52.8496C137.859 52.7449 138.019 51.8482 137.782 50.8466C137.544 49.845 137 49.1179 136.565 49.2226C136.131 49.3273 135.971 50.224 136.208 51.2256C136.445 52.2272 136.99 52.9543 137.424 52.8496Z" fill="#FFB8B8"/>
<path d="M137.341 52.6681C137.596 52.6681 137.803 52.4593 137.803 52.2017C137.803 51.9442 137.596 51.7354 137.341 51.7354C137.086 51.7354 136.879 51.9442 136.879 52.2017C136.879 52.4593 137.086 52.6681 137.341 52.6681Z" fill="#F2F2F2"/>
<path d="M27.4769 92.1257C26.7352 92.1257 26.0101 91.9039 25.3933 91.4883C24.7766 91.0726 24.2959 90.4819 24.012 89.7907C23.7282 89.0995 23.6539 88.3389 23.7986 87.6052C23.9433 86.8714 24.3005 86.1975 24.825 85.6684C25.3495 85.1394 26.0178 84.7792 26.7453 84.6332C27.4728 84.4873 28.2268 84.5622 28.9121 84.8485C29.5974 85.1348 30.1831 85.6196 30.5952 86.2417C31.0073 86.8637 31.2273 87.595 31.2273 88.3431C31.2261 89.346 30.8307 90.3075 30.1276 91.0166C29.4245 91.7257 28.4712 92.1246 27.4769 92.1257ZM27.4769 85.191C26.8588 85.191 26.2545 85.3759 25.7406 85.7222C25.2266 86.0686 24.8261 86.5609 24.5895 87.1369C24.353 87.7128 24.2911 88.3466 24.4117 88.9581C24.5323 89.5696 24.8299 90.1312 25.267 90.5721C25.7041 91.0129 26.261 91.3131 26.8672 91.4347C27.4734 91.5564 28.1018 91.4939 28.6729 91.2554C29.244 91.0168 29.7321 90.6128 30.0755 90.0944C30.4189 89.576 30.6022 88.9666 30.6022 88.3431C30.6013 87.5074 30.2717 86.7062 29.6858 86.1153C29.0999 85.5243 28.3055 85.1919 27.4769 85.191Z" fill="#3F3D56"/>
<path d="M189.836 64.5433H181.71V56.3477H189.836V64.5433ZM182.336 63.9129H189.211V56.9781H182.336V63.9129Z" fill="#3F3D56"/>
<path opacity="0.4" d="M259.86 108.6C245.398 108.667 233.625 108.883 233.625 108.883C233.625 108.883 247.619 90.1882 259.808 97.1144C271.997 104.041 286 108.639 286 108.639C286 108.639 274.323 108.533 259.86 108.6Z" fill="#F2F2F2"/>
<path opacity="0.4" d="M215.481 45.5566C201.018 45.6239 189.246 45.8394 189.246 45.8394C189.246 45.8394 203.239 27.1447 215.429 34.0709C227.618 40.9972 241.621 45.5959 241.621 45.5959C241.621 45.5959 229.944 45.4894 215.481 45.5566Z" fill="#F2F2F2"/>
<path d="M78.3904 53.628L44.9477 36.2834C43.8511 35.7146 43.0233 34.7297 42.6466 33.5454C42.2699 32.3611 42.375 31.0743 42.939 29.9682L50.8176 14.5146C50.932 14.2902 51.0906 14.0917 51.2836 13.9311C51.4766 13.7705 51.7 13.6512 51.9402 13.5806L78.2994 5.8287C79.3532 5.51876 80.4848 5.62823 81.4611 6.13455C82.4374 6.64088 83.184 7.50551 83.5471 8.55039L92.2077 33.4675C92.424 34.09 92.5124 34.7503 92.4674 35.4084C92.4224 36.0664 92.2449 36.7083 91.9459 37.2949L84.6517 51.6019C84.3725 52.1496 83.9891 52.6365 83.5233 53.0347C83.0575 53.4329 82.5185 53.7347 81.9371 53.9229C81.3557 54.111 80.7432 54.1818 80.1347 54.1312C79.5261 54.0806 78.9334 53.9096 78.3904 53.628Z" fill="#F2F2F2"/>
<path opacity="0.1" d="M79.7189 47.5025L45.9517 32.9626C44.8637 32.3983 45.8839 33.2657 46.4434 32.1683L50.6882 14.7676L92.0533 36.221L81.5957 49.2628C81.0362 50.3602 80.8069 48.0668 79.7189 47.5025Z" fill="black"/>
<path d="M61.7192 6.60095L48.2402 33.0392C47.5941 34.3066 48.0889 35.8623 49.3455 36.514L75.5583 50.1089C76.8148 50.7606 78.3573 50.2615 79.0034 48.9941L92.4824 22.5558C93.1285 21.2885 92.6337 19.7328 91.3771 19.0811L65.1643 5.48619C63.9077 4.8345 62.3653 5.3336 61.7192 6.60095Z" fill="#59E0C2"/>
<path opacity="0.1" d="M86.5286 34.236L77.835 51.2883L47.0718 35.3333L55.7654 18.2812L67.3243 33.7572L86.5286 34.236Z" fill="black"/>
<path d="M66.8319 34.721L52.0215 14.8915C51.9299 14.7689 51.8089 14.6717 51.6699 14.6091C51.5309 14.5465 51.3784 14.5205 51.2267 14.5336C51.075 14.5467 50.9291 14.5984 50.8026 14.6839C50.6761 14.7694 50.5733 14.8859 50.5037 15.0225L42.0759 31.5531C41.9073 31.8838 41.8049 32.2448 41.7746 32.6154C41.7443 32.986 41.7867 33.359 41.8994 33.7131C42.012 34.0672 42.1927 34.3955 42.4311 34.6791C42.6695 34.9628 42.961 35.1963 43.2889 35.3664L80.0079 54.4102C80.3357 54.5802 80.6936 54.6835 81.0611 54.7141C81.4286 54.7446 81.7984 54.7019 82.1495 54.5883C82.5005 54.4747 82.826 54.2924 83.1073 54.052C83.3885 53.8115 83.6201 53.5175 83.7887 53.1868L92.072 36.9394C92.157 36.7727 92.1986 36.5871 92.193 36.3998C92.1874 36.2125 92.1347 36.0297 92.0399 35.8685C91.9451 35.7074 91.8112 35.5732 91.6509 35.4784C91.4906 35.3837 91.3091 35.3316 91.1234 35.3269L66.8319 34.721Z" fill="#F2F2F2"/>
<path d="M72.6916 12.9917L64.0884 8.52979L63.4628 9.75687L72.066 14.2188L72.6916 12.9917Z" fill="#F2F2F2"/>
<path d="M86.6628 25.8898L61.1138 12.6392L60.7563 13.3404L86.3054 26.591L86.6628 25.8898Z" fill="#F2F2F2"/>
<path d="M85.4563 28.256L59.9072 15.0054L59.5497 15.7066L85.0988 28.9572L85.4563 28.256Z" fill="#F2F2F2"/>
<path d="M84.2493 30.6222L58.7002 17.3716L58.3427 18.0728L83.8918 31.3234L84.2493 30.6222Z" fill="#F2F2F2"/>
<path d="M67.4638 7.29581C68.4775 5.3075 67.7041 2.86833 65.7363 1.84778C63.7685 0.827221 61.3516 1.61174 60.3379 3.60005C59.3242 5.58835 60.0976 8.02752 62.0654 9.04808C64.0332 10.0686 66.4501 9.28412 67.4638 7.29581Z" fill="white"/>
<path d="M66.049 1.23523C65.2069 0.798438 64.2552 0.623344 63.3143 0.732087C62.3735 0.840831 61.4857 1.22853 60.7633 1.84615C60.0409 2.46377 59.5164 3.28358 59.2559 4.20191C58.9955 5.12023 59.0109 6.09582 59.3002 7.00532C59.5895 7.91481 60.1397 8.71736 60.8812 9.31147C61.6227 9.90558 62.5222 10.2646 63.466 10.3431C64.4098 10.4215 65.3555 10.216 66.1835 9.75235C67.0115 9.28874 67.6845 8.58791 68.1176 7.73848C68.6945 6.59874 68.8008 5.27505 68.4132 4.05654C68.0256 2.83804 67.1757 1.82374 66.049 1.23523ZM61.8178 7.36654L60.7577 4.03362L61.6846 3.73371L62.4483 6.13491L67.4733 4.50895L67.7706 5.4438L61.8178 7.36654Z" fill="#57B894"/>
</svg>
