<svg width="549" height="45" viewBox="0 0 549 45" fill="none" xmlns="http://www.w3.org/2000/svg">
<path d="M65.6743 13.2067C67.4222 14.5357 68.6802 16.4066 69.2517 18.5267H66.308C65.7846 17.1463 64.8498 15.96 63.6301 15.1283C62.2953 14.2483 60.7206 13.8037 59.1227 13.8558C57.7828 13.8267 56.4633 14.1862 55.3234 14.8909C54.1834 15.5955 53.2719 16.6151 52.6989 17.8266C52.0278 19.227 51.6968 20.7662 51.7329 22.3187C51.6982 23.8563 52.0293 25.3802 52.6989 26.7648C53.2762 27.9718 54.1891 28.9868 55.3283 29.6883C56.4676 30.3899 57.785 30.7482 59.1227 30.7203C60.7217 30.7693 62.2965 30.3212 63.6301 29.4376C64.8493 28.5989 65.7807 27.4052 66.2978 26.0187H69.2414C68.67 28.1388 67.412 30.0097 65.6641 31.3387C63.9606 32.6368 61.7835 33.2858 59.1329 33.2858C57.2498 33.324 55.3928 32.8412 53.7669 31.8906C52.2133 30.9605 50.9539 29.6107 50.1334 27.9965C49.231 26.2291 48.7764 24.2671 48.8097 22.2829C48.7728 20.2942 49.22 18.3264 50.1129 16.549C50.9299 14.9283 52.1898 13.5726 53.7464 12.6395C55.3724 11.6889 57.2294 11.2061 59.1124 11.2443C61.7597 11.2545 63.947 11.9087 65.6743 13.2067Z" fill="#282230"/>
<path d="M84.9304 17.0855C86.2022 17.7747 87.2463 18.8187 87.9355 20.0904C88.6544 21.5171 89.0288 23.0923 89.0288 24.6899C89.0288 26.2874 88.6544 27.8627 87.9355 29.2893C87.2427 30.5545 86.1992 31.5927 84.9304 32.2789C83.5854 32.9658 82.0968 33.3239 80.5865 33.3239C79.0763 33.3239 77.5876 32.9658 76.2426 32.2789C74.9717 31.5904 73.9239 30.5531 73.2224 29.2893C72.4944 27.8654 72.1147 26.2891 72.1147 24.6899C72.1147 23.0907 72.4944 21.5143 73.2224 20.0904C73.9202 18.8199 74.9685 17.7768 76.2426 17.0855C77.5876 16.3986 79.0763 16.0405 80.5865 16.0405C82.0968 16.0405 83.5854 16.3986 84.9304 17.0855ZM77.8167 19.1705C76.9477 19.6459 76.2371 20.3655 75.7725 21.2403C75.2577 22.312 74.9905 23.4856 74.9905 24.6745C74.9905 25.8634 75.2577 27.0371 75.7725 28.1088C76.2411 28.9741 76.9513 29.6844 77.8167 30.153C78.6746 30.5962 79.6261 30.8275 80.5916 30.8275C81.5572 30.8275 82.5089 30.5962 83.3667 30.153C84.2321 29.6844 84.9424 28.9741 85.4109 28.1088C85.9257 27.0371 86.193 25.8634 86.193 24.6745C86.193 23.4856 85.9257 22.312 85.4109 21.2403C84.9464 20.3655 84.2357 19.6459 83.3667 19.1705C82.5089 18.7273 81.5572 18.4961 80.5916 18.4961C79.6261 18.4961 78.6746 18.7273 77.8167 19.1705Z" fill="#282230"/>
<path d="M106.287 17.8673C107.49 19.1074 108.091 20.92 108.091 23.3049V33.0863H105.301V23.5553C105.301 21.879 104.872 20.5912 104.013 19.6917C103.558 19.2341 103.011 18.8775 102.409 18.6451C101.807 18.4126 101.162 18.3096 100.518 18.3426C99.8335 18.3123 99.151 18.4295 98.5161 18.6861C97.8813 18.9427 97.309 19.3327 96.838 19.8297C95.9181 20.8212 95.4582 22.2674 95.4582 24.1685V33.0914H92.6679V16.2575H95.4582V20.2386C95.8275 18.9514 96.6357 17.834 97.7426 17.0803C98.864 16.3375 100.184 15.9525 101.529 15.9764C102.411 15.9405 103.29 16.0902 104.109 16.416C104.929 16.7417 105.671 17.2362 106.287 17.8673Z" fill="#282230"/>
<path d="M122.247 17.5301C123.419 18.5574 124.168 19.9835 124.348 21.5316H121.675C121.581 20.5844 121.141 19.7053 120.438 19.0632C119.651 18.3908 118.636 18.0451 117.602 18.0973C116.759 18.0466 115.925 18.3026 115.256 18.8179C114.977 19.0575 114.756 19.3572 114.61 19.6945C114.464 20.0318 114.397 20.3978 114.413 20.765C114.401 21.0384 114.446 21.3113 114.543 21.567C114.641 21.8227 114.789 22.0558 114.98 22.2522C115.377 22.6444 115.86 22.9385 116.391 23.1107C117.151 23.3608 117.923 23.5707 118.706 23.7393C119.73 23.9612 120.737 24.2532 121.721 24.6132C122.489 24.9098 123.167 25.4011 123.688 26.039C124.263 26.7941 124.551 27.7286 124.501 28.676C124.519 29.3134 124.39 29.9463 124.124 30.5258C123.858 31.1053 123.462 31.6159 122.968 32.0183C121.789 32.9254 120.324 33.382 118.839 33.3061C117.09 33.3829 115.366 32.8759 113.938 31.865C113.307 31.387 112.782 30.7832 112.396 30.0917C112.011 29.4002 111.774 28.6362 111.699 27.8481H114.398C114.435 28.3321 114.573 28.8028 114.803 29.2304C115.033 29.658 115.349 30.0331 115.731 30.3318C116.625 31.0004 117.724 31.3365 118.839 31.2824C119.657 31.3309 120.464 31.068 121.097 30.5465C121.364 30.3023 121.574 30.003 121.714 29.6694C121.853 29.3359 121.918 28.976 121.905 28.6147C121.92 28.3285 121.876 28.0422 121.777 27.7734C121.678 27.5045 121.525 27.2587 121.327 27.0509C120.919 26.6514 120.427 26.3477 119.886 26.1617C119.11 25.9023 118.32 25.6873 117.52 25.5178C116.507 25.2986 115.51 25.0118 114.536 24.6592C113.794 24.378 113.138 23.9076 112.634 23.2947C112.078 22.5728 111.801 21.6748 111.853 20.765C111.831 20.1131 111.961 19.4651 112.233 18.8719C112.504 18.2787 112.909 17.7564 113.416 17.3461C114.438 16.4773 115.88 16.0429 117.678 16.0429C119.332 15.9664 120.956 16.4951 122.247 17.5301Z" fill="#282230"/>
<path d="M136.275 30.6386V33.0916H134.19C132.473 33.0916 131.185 32.6828 130.342 31.8651C129.499 31.0475 129.07 29.6778 129.07 27.7767V18.7056H126.555V16.2833H129.07V12.062H131.891V16.2628H136.24V18.7056H131.891V27.8432C131.891 28.9266 132.09 29.6676 132.489 30.0662C132.887 30.4649 133.577 30.6642 134.558 30.6642L136.275 30.6386Z" fill="#282230"/>
<path d="M150.728 17.2695C151.855 18.0767 152.689 19.2281 153.104 20.5505V16.2577H155.895V33.0916H153.104V28.7988C152.689 30.1211 151.855 31.2726 150.728 32.0797C149.51 32.9227 148.054 33.3526 146.573 33.3062C145.176 33.337 143.797 32.9835 142.587 32.2841C141.405 31.5709 140.452 30.5332 139.843 29.2945C139.184 27.8507 138.843 26.2821 138.843 24.6951C138.843 23.108 139.184 21.5395 139.843 20.0956C140.449 18.8506 141.402 17.8072 142.587 17.0907C143.797 16.3913 145.176 16.0378 146.573 16.0686C148.051 16.0147 149.507 16.4356 150.728 17.2695ZM143.246 20.1672C142.224 21.2608 141.713 22.7684 141.713 24.69C141.713 26.6115 142.224 28.1191 143.246 29.2127C143.778 29.7627 144.421 30.1933 145.132 30.4761C145.843 30.7589 146.606 30.8875 147.371 30.8532C148.408 30.8706 149.431 30.6057 150.329 30.0866C151.202 29.5745 151.911 28.8247 152.374 27.9249C152.881 26.9234 153.134 25.8123 153.11 24.69C153.133 23.5628 152.88 22.447 152.374 21.4397C151.917 20.5358 151.206 19.7846 150.329 19.2779C149.428 18.7685 148.406 18.5092 147.371 18.5267C146.606 18.4924 145.843 18.621 145.132 18.9038C144.421 19.1866 143.778 19.6172 143.246 20.1672Z" fill="#282230"/>
<path d="M173.955 17.8674C175.161 19.1246 175.764 20.9388 175.764 23.3101V33.0915H172.994V23.5554C172.994 21.8791 172.565 20.5913 171.707 19.6918C171.251 19.2342 170.705 18.8776 170.102 18.6452C169.5 18.4127 168.856 18.3097 168.211 18.3427C167.527 18.3124 166.844 18.4296 166.21 18.6862C165.575 18.9428 165.002 19.3328 164.531 19.8298C163.612 20.8213 163.152 22.2675 163.152 24.1686V33.0915H160.361V16.2576H163.152V20.2387C163.521 18.9515 164.329 17.8341 165.436 17.0804C166.557 16.3376 167.878 15.9526 169.223 15.9765C170.1 15.9438 170.974 16.0952 171.789 16.4209C172.604 16.7466 173.342 17.2393 173.955 17.8674Z" fill="#282230"/>
<path d="M188.091 30.6386V33.0916H186.006C184.302 33.0916 183.019 32.6828 182.157 31.8651C181.295 31.0475 180.871 29.6847 180.885 27.7767V18.7056H178.371V16.2833H180.885V12.062H183.726V16.2628H188.08V18.7056H183.726V27.8432C183.726 28.9266 183.926 29.6676 184.324 30.0662C184.723 30.4649 185.404 30.6642 186.368 30.6642L188.091 30.6386Z" fill="#282230"/>
<path d="M206.856 25.2725H193.395C193.457 27.194 194.003 28.6352 195.036 29.596C196.06 30.5542 197.42 31.0717 198.823 31.0371C200.034 31.081 201.226 30.7215 202.211 30.015C203.106 29.3544 203.706 28.369 203.882 27.2707H206.856C206.665 28.4198 206.192 29.5034 205.478 30.424C204.765 31.3446 203.833 32.0734 202.768 32.5447C201.571 33.0709 200.274 33.3324 198.966 33.3113C197.471 33.3457 195.992 32.9937 194.673 32.2892C193.428 31.5966 192.411 30.5581 191.745 29.2996C191.046 27.8669 190.683 26.294 190.683 24.7001C190.683 23.1063 191.046 21.5334 191.745 20.1007C192.408 18.8356 193.425 17.7913 194.673 17.0957C195.992 16.3912 197.471 16.0392 198.966 16.0736C200.457 16.0319 201.932 16.3845 203.243 17.0957C204.417 17.7459 205.383 18.7128 206.034 19.886C206.682 21.0695 207.015 22.4001 206.999 23.7496C206.999 24.2605 206.951 24.7703 206.856 25.2725ZM203.545 20.7957C203.107 19.9892 202.433 19.3363 201.613 18.9253C200.784 18.5139 199.87 18.3038 198.945 18.312C197.522 18.271 196.137 18.7819 195.082 19.7378C194.039 20.6884 193.477 22.0836 193.395 23.9233H204.168C204.261 22.8428 204.044 21.7582 203.545 20.7957Z" fill="#282230"/>
<path d="M17.2932 37.5324C16.9252 37.5324 16.5469 37.5324 16.179 37.4915C13.8441 37.3215 11.5797 36.6162 9.56119 35.4302C7.54271 34.2443 5.82445 32.6095 4.53942 30.6526C3.25439 28.6957 2.4371 26.4693 2.15099 24.1457C1.86489 21.8222 2.11756 19.4639 2.88949 17.2538C3.66143 15.0436 4.93196 13.0408 6.60245 11.4006C8.27295 9.76046 10.2986 8.52691 12.5226 7.79558C14.7465 7.06424 17.1089 6.85476 19.4268 7.18336C21.7447 7.51196 23.9559 8.36982 25.8889 9.69047L24.4835 11.1776C24.4202 11.2456 24.3767 11.3296 24.3575 11.4205C24.3383 11.5114 24.3442 11.6058 24.3747 11.6936C24.4052 11.7814 24.459 11.8592 24.5304 11.9186C24.6018 11.9781 24.6881 12.017 24.78 12.0311L29.8905 12.7772C29.9704 12.7889 30.0519 12.7815 30.1284 12.7555C30.2049 12.7296 30.2742 12.686 30.3305 12.6281C30.3869 12.5703 30.4286 12.4999 30.4525 12.4228C30.4764 12.3457 30.4818 12.2639 30.468 12.1844L29.5737 6.98191C29.5576 6.88852 29.5158 6.80143 29.4531 6.73037C29.3905 6.65931 29.3092 6.60708 29.2186 6.57951C29.1279 6.55194 29.0315 6.55012 28.9399 6.57425C28.8482 6.59838 28.765 6.64752 28.6997 6.71617L27.2994 8.1931C25.1253 6.64904 22.6234 5.62883 19.9895 5.21226C17.3556 4.79568 14.6611 4.99404 12.1166 5.79181C9.57205 6.58958 7.24657 7.96513 5.32196 9.81091C3.39736 11.6567 1.92589 13.9226 1.02247 16.4316C0.119053 18.9405 -0.191839 21.6245 0.114287 24.2735C0.420413 26.9225 1.33522 29.4648 2.78706 31.7016C4.2389 33.9383 6.18847 35.8089 8.48333 37.1671C10.7782 38.5253 13.3561 39.3342 16.0155 39.5306C16.4346 39.5612 16.8588 39.5766 17.2778 39.5766C17.5489 39.5766 17.8088 39.4689 18.0005 39.2772C18.1922 39.0855 18.2999 38.8255 18.2999 38.5545C18.2999 38.2834 18.1922 38.0234 18.0005 37.8317C17.8088 37.6401 17.5489 37.5324 17.2778 37.5324H17.2932Z" fill="#009A93"/>
<path d="M31.9091 18.4957C31.9646 18.7155 32.0917 18.9106 32.2703 19.0503C32.4488 19.19 32.6688 19.2664 32.8955 19.2674C32.9816 19.2673 33.0673 19.257 33.151 19.2367C33.2813 19.2034 33.4038 19.1446 33.5113 19.0638C33.6189 18.9831 33.7095 18.8819 33.7778 18.766C33.8462 18.6502 33.891 18.522 33.9097 18.3888C33.9284 18.2556 33.9207 18.12 33.8869 17.9898C33.6621 17.1167 33.3699 16.2624 33.013 15.4345C32.9029 15.1895 32.7006 14.9977 32.4501 14.9006C32.1996 14.8035 31.9209 14.809 31.6744 14.9158C31.4279 15.0226 31.2334 15.2221 31.1329 15.4713C31.0324 15.7204 31.034 15.9991 31.1374 16.2471C31.4511 16.976 31.7091 17.7277 31.9091 18.4957Z" fill="#009A93"/>
<path d="M34.4134 22.7632C34.4195 22.5599 34.3648 22.3593 34.2562 22.1873C34.1477 22.0152 33.9903 21.8794 33.8042 21.7973C33.618 21.7153 33.4115 21.6906 33.2113 21.7265C33.011 21.7624 32.8262 21.8572 32.6802 21.9989C32.5341 22.1405 32.4337 22.3225 32.3917 22.5216C32.3497 22.7207 32.3681 22.9277 32.4445 23.1163C32.5208 23.3048 32.6517 23.4663 32.8204 23.58C32.9891 23.6938 33.1879 23.7546 33.3913 23.7546H33.4219C33.6877 23.7548 33.9432 23.6513 34.1341 23.4662C34.3249 23.2811 34.436 23.0289 34.444 22.7632H34.4134Z" fill="#009A93"/>
<path d="M33.6673 27.1479C33.667 27.0595 33.6532 26.9716 33.6264 26.8873C33.6273 26.8702 33.6273 26.8532 33.6264 26.8362C33.6116 26.7944 33.5944 26.7535 33.5752 26.7135C33.5583 26.6834 33.5396 26.6544 33.5191 26.6266C33.5091 26.6051 33.4971 26.5846 33.4833 26.5653C33.4302 26.4995 33.3702 26.4395 33.3044 26.3864L33.2227 26.3302C33.1658 26.2945 33.1059 26.2638 33.0437 26.2382C33.0226 26.2259 33.0004 26.2157 32.9774 26.2076C32.733 26.1326 32.4694 26.1519 32.2386 26.2616C32.0078 26.3713 31.8265 26.5636 31.7304 26.8004L31.6997 26.8617C31.3071 28.1086 30.754 29.2991 30.0542 30.4033C30.0133 30.4799 29.9571 30.5566 29.906 30.6333L29.8753 30.6792C29.8009 30.7917 29.7495 30.9178 29.724 31.0503C29.6986 31.1827 29.6996 31.3189 29.727 31.4509C29.7815 31.7144 29.9376 31.9457 30.1615 32.0949C30.3872 32.2444 30.663 32.2982 30.9284 32.2446C31.1938 32.1909 31.4272 32.0342 31.5771 31.8087C31.6435 31.7167 31.7048 31.6145 31.7815 31.4918C32.5779 30.2429 33.2052 28.8939 33.6469 27.4801C33.6754 27.3892 33.6891 27.2943 33.6877 27.199C33.6877 27.199 33.6673 27.1581 33.6673 27.1479Z" fill="#009A93"/>
<path d="M27.0544 33.8581C26.8477 34.0333 26.7191 34.2832 26.6967 34.5532C26.6861 34.6937 26.7047 34.8349 26.7513 34.9679C26.7979 35.1009 26.8716 35.2228 26.9675 35.326C27.0635 35.4292 27.1797 35.5114 27.309 35.5675C27.4383 35.6236 27.5778 35.6523 27.7188 35.6519C27.9624 35.6519 28.198 35.5649 28.3831 35.4066L28.4393 35.3657C28.611 35.1887 28.7158 34.9574 28.7357 34.7116C28.7468 34.5775 28.7313 34.4426 28.6901 34.3146C28.6489 34.1866 28.5827 34.0679 28.4956 33.9655C28.3144 33.7671 28.0643 33.6454 27.7964 33.6255C27.5284 33.6055 27.2629 33.6888 27.0544 33.8581Z" fill="#009A93"/>
<path d="M24.8772 37.3945C24.8928 37.3569 24.9032 37.3173 24.9079 37.2769C24.9132 37.2379 24.9132 37.1984 24.9079 37.1594C24.9129 37.1306 24.9129 37.1013 24.9079 37.0725C24.9085 36.9277 24.8772 36.7846 24.816 36.6534C24.7765 36.5669 24.7229 36.4875 24.6575 36.4184C24.5264 36.2658 24.3532 36.1553 24.1596 36.1008C23.9659 36.0462 23.7605 36.0501 23.569 36.1117L23.4616 36.1475C22.7417 36.4772 21.9967 36.7489 21.2335 36.9601C20.9938 37.0252 20.786 37.1753 20.649 37.3825C20.5119 37.5896 20.4551 37.8395 20.4889 38.0856C20.5227 38.3316 20.6449 38.5569 20.8328 38.7194C21.0206 38.8819 21.2611 38.9704 21.5095 38.9685C21.601 38.9687 21.6921 38.9567 21.7804 38.9327C22.6556 38.6894 23.5101 38.3766 24.3356 37.9975L24.4429 37.9515C24.4592 37.9408 24.4745 37.9289 24.4888 37.9157C24.5522 37.8711 24.6121 37.8215 24.6677 37.7675C24.7181 37.7145 24.7627 37.6563 24.8006 37.5938C24.819 37.5629 24.8344 37.5304 24.8467 37.4967C24.861 37.464 24.8712 37.4297 24.8772 37.3945Z" fill="#009A93"/>
<path d="M17.467 14.0649C17.1959 14.0649 16.936 14.1726 16.7443 14.3643C16.5526 14.556 16.4449 14.816 16.4449 15.087V22.8959L14.0379 26.9076C13.9687 27.0227 13.9229 27.1503 13.9031 27.2831C13.8833 27.4158 13.8898 27.5512 13.9223 27.6815C13.9548 27.8118 14.0127 27.9344 14.0926 28.0423C14.1725 28.1502 14.2729 28.2413 14.388 28.3104C14.5031 28.3795 14.6306 28.4253 14.7634 28.4451C14.8962 28.465 15.0316 28.4584 15.1619 28.4259C15.2922 28.3934 15.4147 28.3356 15.5226 28.2557C15.6305 28.1758 15.7216 28.0754 15.7907 27.9603L18.346 23.7033C18.4378 23.5485 18.4872 23.3722 18.4891 23.1923V15.087C18.4891 14.816 18.3814 14.556 18.1897 14.3643C17.9981 14.1726 17.738 14.0649 17.467 14.0649Z" fill="#009A93"/>
<path d="M297.587 16.472V25.796L291.413 16.472H289.361V29H291.413V19.658L297.587 29H299.639V16.472H297.587ZM311.783 24.032C311.783 20.918 309.551 18.92 306.725 18.92C303.899 18.92 301.667 20.918 301.667 24.032C301.667 27.146 303.809 29.162 306.635 29.162C309.479 29.162 311.783 27.146 311.783 24.032ZM303.755 24.032C303.755 21.782 305.141 20.702 306.689 20.702C308.219 20.702 309.677 21.782 309.677 24.032C309.677 26.282 308.165 27.38 306.635 27.38C305.087 27.38 303.755 26.282 303.755 24.032ZM304.601 16.706V18.218L308.579 16.256V14.51L304.601 16.706ZM321.21 26.228C321.102 22.646 315.504 23.762 315.504 21.764C315.504 21.098 316.08 20.648 317.178 20.648C318.294 20.648 318.96 21.242 319.032 22.106H321.084C320.976 20.126 319.5 18.92 317.25 18.92C314.91 18.92 313.434 20.198 313.434 21.782C313.434 25.418 319.194 24.302 319.194 26.246C319.194 26.93 318.564 27.434 317.376 27.434C316.242 27.434 315.468 26.768 315.396 25.958H313.272C313.362 27.758 315.036 29.162 317.412 29.162C319.752 29.162 321.21 27.902 321.21 26.228ZM335.501 26.228C335.393 22.646 329.795 23.762 329.795 21.764C329.795 21.098 330.371 20.648 331.469 20.648C332.585 20.648 333.251 21.242 333.323 22.106H335.375C335.267 20.126 333.791 18.92 331.541 18.92C329.201 18.92 327.725 20.198 327.725 21.782C327.725 25.418 333.485 24.302 333.485 26.246C333.485 26.93 332.855 27.434 331.667 27.434C330.533 27.434 329.759 26.768 329.687 25.958H327.563C327.653 27.758 329.327 29.162 331.703 29.162C334.043 29.162 335.501 27.902 335.501 26.228ZM337.718 29H339.77V19.082H337.718V29ZM338.762 17.768C339.482 17.768 340.058 17.192 340.058 16.454C340.058 15.716 339.482 15.14 338.762 15.14C338.024 15.14 337.448 15.716 337.448 16.454C337.448 17.192 338.024 17.768 338.762 17.768ZM341.78 23.996C341.78 27.056 343.85 29.162 346.46 29.162C348.08 29.162 349.268 28.352 349.898 27.506V29.162C349.898 31.142 348.71 32.114 347.126 32.114C345.704 32.114 344.606 31.412 344.3 30.386H342.266C342.518 32.582 344.48 33.896 347.126 33.896C350.222 33.896 351.968 31.862 351.968 29.162V19.082H349.898V20.522C349.286 19.676 348.08 18.92 346.46 18.92C343.85 18.92 341.78 20.936 341.78 23.996ZM349.898 24.032C349.898 26.174 348.44 27.38 346.892 27.38C345.362 27.38 343.886 26.138 343.886 23.996C343.886 21.854 345.362 20.702 346.892 20.702C348.44 20.702 349.898 21.908 349.898 24.032ZM353.979 23.996C353.979 27.056 356.049 29.162 358.623 29.162C360.279 29.162 361.467 28.37 362.097 27.524V29H364.167V19.082H362.097V20.522C361.485 19.712 360.333 18.92 358.659 18.92C356.049 18.92 353.979 20.936 353.979 23.996ZM362.097 24.032C362.097 26.174 360.639 27.38 359.091 27.38C357.561 27.38 356.085 26.138 356.085 23.996C356.085 21.854 357.561 20.702 359.091 20.702C360.639 20.702 362.097 21.908 362.097 24.032ZM378.576 29H380.61V23.15C380.61 20.378 378.864 18.92 376.542 18.92C375.354 18.92 374.256 19.406 373.59 20.216V19.082H371.538V29H373.59V23.456C373.59 21.638 374.58 20.702 376.092 20.702C377.586 20.702 378.576 21.638 378.576 23.456V29ZM392.678 24.032C392.678 20.918 390.446 18.92 387.62 18.92C384.794 18.92 382.562 20.918 382.562 24.032C382.562 27.146 384.704 29.162 387.53 29.162C390.374 29.162 392.678 27.146 392.678 24.032ZM384.65 24.032C384.65 21.782 386.036 20.702 387.584 20.702C389.114 20.702 390.572 21.782 390.572 24.032C390.572 26.282 389.06 27.38 387.53 27.38C385.982 27.38 384.65 26.282 384.65 24.032ZM399.382 29H401.434V19.082H399.382V29ZM400.426 17.768C401.146 17.768 401.722 17.192 401.722 16.454C401.722 15.716 401.146 15.14 400.426 15.14C399.688 15.14 399.112 15.716 399.112 16.454C399.112 17.192 399.688 17.768 400.426 17.768ZM411.166 29H413.2V23.15C413.2 20.378 411.454 18.92 409.132 18.92C407.944 18.92 406.846 19.406 406.18 20.216V19.082H404.128V29H406.18V23.456C406.18 21.638 407.17 20.702 408.682 20.702C410.176 20.702 411.166 21.638 411.166 23.456V29ZM423.216 26.228C423.108 22.646 417.51 23.762 417.51 21.764C417.51 21.098 418.086 20.648 419.184 20.648C420.3 20.648 420.966 21.242 421.038 22.106H423.09C422.982 20.126 421.506 18.92 419.256 18.92C416.916 18.92 415.44 20.198 415.44 21.782C415.44 25.418 421.2 24.302 421.2 26.246C421.2 26.93 420.57 27.434 419.382 27.434C418.248 27.434 417.474 26.768 417.402 25.958H415.278C415.368 27.758 417.042 29.162 419.418 29.162C421.758 29.162 423.216 27.902 423.216 26.228ZM425.757 26.246C425.757 28.262 426.855 29 428.619 29H430.239V27.29H428.979C428.115 27.29 427.827 26.984 427.827 26.246V20.756H430.239V19.082H427.827V16.616H425.757V19.082H424.587V20.756H425.757V26.246ZM431.446 23.996C431.446 27.056 433.516 29.162 436.09 29.162C437.746 29.162 438.934 28.37 439.564 27.524V29H441.634V19.082H439.564V20.522C438.952 19.712 437.8 18.92 436.126 18.92C433.516 18.92 431.446 20.936 431.446 23.996ZM439.564 24.032C439.564 26.174 438.106 27.38 436.558 27.38C435.028 27.38 433.552 26.138 433.552 23.996C433.552 21.854 435.028 20.702 436.558 20.702C438.106 20.702 439.564 21.908 439.564 24.032ZM443.645 23.996C443.645 27.056 445.715 29.162 448.325 29.162C449.945 29.162 451.133 28.352 451.763 27.506V29.162C451.763 31.142 450.575 32.114 448.991 32.114C447.569 32.114 446.471 31.412 446.165 30.386H444.131C444.383 32.582 446.345 33.896 448.991 33.896C452.087 33.896 453.833 31.862 453.833 29.162V19.082H451.763V20.522C451.151 19.676 449.945 18.92 448.325 18.92C445.715 18.92 443.645 20.936 443.645 23.996ZM451.763 24.032C451.763 26.174 450.305 27.38 448.757 27.38C447.227 27.38 445.751 26.138 445.751 23.996C445.751 21.854 447.227 20.702 448.757 20.702C450.305 20.702 451.763 21.908 451.763 24.032ZM458.581 23.78C458.581 21.674 459.517 21.044 461.029 21.044H461.551V18.92C460.147 18.92 459.157 19.532 458.581 20.522V19.082H456.529V29H458.581V23.78ZM462.753 23.996C462.753 27.056 464.823 29.162 467.397 29.162C469.053 29.162 470.241 28.37 470.871 27.524V29H472.941V19.082H470.871V20.522C470.259 19.712 469.107 18.92 467.433 18.92C464.823 18.92 462.753 20.936 462.753 23.996ZM470.871 24.032C470.871 26.174 469.413 27.38 467.865 27.38C466.335 27.38 464.859 26.138 464.859 23.996C464.859 21.854 466.335 20.702 467.865 20.702C469.413 20.702 470.871 21.908 470.871 24.032ZM489.694 29H491.728V23.15C491.728 20.378 489.964 18.92 487.642 18.92C486.202 18.92 484.798 19.676 484.186 20.882C483.502 19.586 482.188 18.92 480.622 18.92C479.434 18.92 478.354 19.406 477.688 20.216V19.082H475.636V29H477.688V23.456C477.688 21.638 478.678 20.702 480.19 20.702C481.684 20.702 482.674 21.638 482.674 23.456V29H484.708V23.456C484.708 21.638 485.698 20.702 487.21 20.702C488.704 20.702 489.694 21.638 489.694 23.456V29Z" fill="#8C8C8F"/>
<rect x="247" width="1" height="45" rx="0.5" fill="#B4B4B8"/>
<g clip-path="url(#clip0)">
<path d="M525.987 7H539.987C544.405 7 547.987 10.5813 547.987 15V29C547.987 33.4187 544.405 37 539.987 37H525.987C521.568 37 517.987 33.4187 517.987 29V15C517.987 10.5813 521.568 7 525.987 7Z" stroke="#009A93" stroke-width="1.5" stroke-linecap="round" stroke-linejoin="round"/>
<path d="M532.987 15.3335C536.668 15.3335 539.653 18.3188 539.653 22.0002C539.653 25.6815 536.668 28.6668 532.987 28.6668C529.305 28.6668 526.32 25.6815 526.32 22.0002C526.32 18.3188 529.305 15.3335 532.987 15.3335Z" stroke="#009A93" stroke-width="1.5" stroke-linecap="round" stroke-linejoin="round"/>
<path d="M542.787 12.8667C542.787 13.2347 542.488 13.5334 542.12 13.5334C541.752 13.5334 541.453 13.2347 541.453 12.8667" stroke="#009A93" stroke-width="1.5" stroke-linecap="round" stroke-linejoin="round"/>
<path d="M541.453 12.8669C541.453 12.4989 541.752 12.2002 542.12 12.2002C542.488 12.2002 542.787 12.4989 542.787 12.8669" stroke="#009A93" stroke-width="1.5" stroke-linecap="round" stroke-linejoin="round"/>
</g>
<defs>
<clipPath id="clip0">
<rect x="517" y="6" width="32" height="32" fill="white"/>
</clipPath>
</defs>
</svg>
